solid OpenSCAD_Model
  facet normal -0.809017 -0.587785 0
    outer loop
      vertex -3.2 16.5 -0.5
      vertex -3.40729 16.7853 0.5
      vertex -3.40729 16.7853 -0.5
    endloop
  endfacet
  facet normal -0.809017 -0.587785 0
    outer loop
      vertex -3.40729 16.7853 0.5
      vertex -3.2 16.5 -0.5
      vertex -3.2 16.5 0.5
    endloop
  endfacet
  facet normal 1 -0 0
    outer loop
      vertex -3.7427 16.3237 0.5
      vertex -3.7427 16.6763 -0.5
      vertex -3.7427 16.6763 0.5
    endloop
  endfacet
  facet normal 1 0 0
    outer loop
      vertex -3.7427 16.6763 -0.5
      vertex -3.7427 16.3237 0.5
      vertex -3.7427 16.3237 -0.5
    endloop
  endfacet
  facet normal 0.309019 -0.951056 0
    outer loop
      vertex -3.7427 16.6763 -0.5
      vertex -3.40729 16.7853 0.5
      vertex -3.7427 16.6763 0.5
    endloop
  endfacet
  facet normal 0.309019 -0.951056 0
    outer loop
      vertex -3.40729 16.7853 0.5
      vertex -3.7427 16.6763 -0.5
      vertex -3.40729 16.7853 -0.5
    endloop
  endfacet
  facet normal 0.309019 0.951056 -0
    outer loop
      vertex -3.40729 16.2147 -0.5
      vertex -3.7427 16.3237 0.5
      vertex -3.40729 16.2147 0.5
    endloop
  endfacet
  facet normal 0.309019 0.951056 0
    outer loop
      vertex -3.7427 16.3237 0.5
      vertex -3.40729 16.2147 -0.5
      vertex -3.7427 16.3237 -0.5
    endloop
  endfacet
  facet normal -0.809017 0.587785 0
    outer loop
      vertex -3.40729 16.2147 -0.5
      vertex -3.2 16.5 0.5
      vertex -3.2 16.5 -0.5
    endloop
  endfacet
  facet normal -0.809017 0.587785 0
    outer loop
      vertex -3.2 16.5 0.5
      vertex -3.40729 16.2147 -0.5
      vertex -3.40729 16.2147 0.5
    endloop
  endfacet
  facet normal -0.809017 -0.587785 0
    outer loop
      vertex 3.8 16.5 -0.5
      vertex 3.5927 16.7853 0.5
      vertex 3.5927 16.7853 -0.5
    endloop
  endfacet
  facet normal -0.809017 -0.587785 0
    outer loop
      vertex 3.5927 16.7853 0.5
      vertex 3.8 16.5 -0.5
      vertex 3.8 16.5 0.5
    endloop
  endfacet
  facet normal 1 -0 0
    outer loop
      vertex 3.25729 16.3237 0.5
      vertex 3.25729 16.6763 -0.5
      vertex 3.25729 16.6763 0.5
    endloop
  endfacet
  facet normal 1 0 0
    outer loop
      vertex 3.25729 16.6763 -0.5
      vertex 3.25729 16.3237 0.5
      vertex 3.25729 16.3237 -0.5
    endloop
  endfacet
  facet normal 0.309019 -0.951056 0
    outer loop
      vertex 3.25729 16.6763 -0.5
      vertex 3.5927 16.7853 0.5
      vertex 3.25729 16.6763 0.5
    endloop
  endfacet
  facet normal 0.309019 -0.951056 0
    outer loop
      vertex 3.5927 16.7853 0.5
      vertex 3.25729 16.6763 -0.5
      vertex 3.5927 16.7853 -0.5
    endloop
  endfacet
  facet normal 0.309019 0.951056 -0
    outer loop
      vertex 3.5927 16.2147 -0.5
      vertex 3.25729 16.3237 0.5
      vertex 3.5927 16.2147 0.5
    endloop
  endfacet
  facet normal 0.309019 0.951056 0
    outer loop
      vertex 3.25729 16.3237 0.5
      vertex 3.5927 16.2147 -0.5
      vertex 3.25729 16.3237 -0.5
    endloop
  endfacet
  facet normal -0.809017 0.587785 0
    outer loop
      vertex 3.5927 16.2147 -0.5
      vertex 3.8 16.5 0.5
      vertex 3.8 16.5 -0.5
    endloop
  endfacet
  facet normal -0.809017 0.587785 0
    outer loop
      vertex 3.8 16.5 0.5
      vertex 3.5927 16.2147 -0.5
      vertex 3.5927 16.2147 0.5
    endloop
  endfacet
  facet normal -0.809017 -0.587785 0
    outer loop
      vertex -0.9 16.5 -0.5
      vertex -1.10729 16.7853 0.5
      vertex -1.10729 16.7853 -0.5
    endloop
  endfacet
  facet normal -0.809017 -0.587785 0
    outer loop
      vertex -1.10729 16.7853 0.5
      vertex -0.9 16.5 -0.5
      vertex -0.9 16.5 0.5
    endloop
  endfacet
  facet normal 1 -0 0
    outer loop
      vertex -1.4427 16.3237 0.5
      vertex -1.4427 16.6763 -0.5
      vertex -1.4427 16.6763 0.5
    endloop
  endfacet
  facet normal 1 0 0
    outer loop
      vertex -1.4427 16.6763 -0.5
      vertex -1.4427 16.3237 0.5
      vertex -1.4427 16.3237 -0.5
    endloop
  endfacet
  facet normal 0.309019 -0.951056 0
    outer loop
      vertex -1.4427 16.6763 -0.5
      vertex -1.10729 16.7853 0.5
      vertex -1.4427 16.6763 0.5
    endloop
  endfacet
  facet normal 0.309019 -0.951056 0
    outer loop
      vertex -1.10729 16.7853 0.5
      vertex -1.4427 16.6763 -0.5
      vertex -1.10729 16.7853 -0.5
    endloop
  endfacet
  facet normal 0.309019 0.951056 -0
    outer loop
      vertex -1.10729 16.2147 -0.5
      vertex -1.4427 16.3237 0.5
      vertex -1.10729 16.2147 0.5
    endloop
  endfacet
  facet normal 0.309019 0.951056 0
    outer loop
      vertex -1.4427 16.3237 0.5
      vertex -1.10729 16.2147 -0.5
      vertex -1.4427 16.3237 -0.5
    endloop
  endfacet
  facet normal -0.809017 0.587785 0
    outer loop
      vertex -1.10729 16.2147 -0.5
      vertex -0.9 16.5 0.5
      vertex -0.9 16.5 -0.5
    endloop
  endfacet
  facet normal -0.809017 0.587785 0
    outer loop
      vertex -0.9 16.5 0.5
      vertex -1.10729 16.2147 -0.5
      vertex -1.10729 16.2147 0.5
    endloop
  endfacet
  facet normal -0.809016 -0.587787 0
    outer loop
      vertex 1.5 16.5 -0.5
      vertex 1.2927 16.7853 0.5
      vertex 1.2927 16.7853 -0.5
    endloop
  endfacet
  facet normal -0.809016 -0.587787 0
    outer loop
      vertex 1.2927 16.7853 0.5
      vertex 1.5 16.5 -0.5
      vertex 1.5 16.5 0.5
    endloop
  endfacet
  facet normal 1 -0 0
    outer loop
      vertex 0.957294 16.3237 0.5
      vertex 0.957294 16.6763 -0.5
      vertex 0.957294 16.6763 0.5
    endloop
  endfacet
  facet normal 1 0 0
    outer loop
      vertex 0.957294 16.6763 -0.5
      vertex 0.957294 16.3237 0.5
      vertex 0.957294 16.3237 -0.5
    endloop
  endfacet
  facet normal 0.309019 -0.951056 0
    outer loop
      vertex 0.957294 16.6763 -0.5
      vertex 1.2927 16.7853 0.5
      vertex 0.957294 16.6763 0.5
    endloop
  endfacet
  facet normal 0.309019 -0.951056 0
    outer loop
      vertex 1.2927 16.7853 0.5
      vertex 0.957294 16.6763 -0.5
      vertex 1.2927 16.7853 -0.5
    endloop
  endfacet
  facet normal 0.309019 0.951056 -0
    outer loop
      vertex 1.2927 16.2147 -0.5
      vertex 0.957294 16.3237 0.5
      vertex 1.2927 16.2147 0.5
    endloop
  endfacet
  facet normal 0.309019 0.951056 0
    outer loop
      vertex 0.957294 16.3237 0.5
      vertex 1.2927 16.2147 -0.5
      vertex 0.957294 16.3237 -0.5
    endloop
  endfacet
  facet normal -0.809016 0.587787 0
    outer loop
      vertex 1.2927 16.2147 -0.5
      vertex 1.5 16.5 0.5
      vertex 1.5 16.5 -0.5
    endloop
  endfacet
  facet normal -0.809016 0.587787 0
    outer loop
      vertex 1.5 16.5 0.5
      vertex 1.2927 16.2147 -0.5
      vertex 1.2927 16.2147 0.5
    endloop
  endfacet
  facet normal -1 0 0
    outer loop
      vertex -13 18 -0.5
      vertex -13 13 0.5
      vertex -13 18 0.5
    endloop
  endfacet
  facet normal -1 0 0
    outer loop
      vertex -13 13 0.5
      vertex -13 -13 0.5
      vertex -13 13 9.5
    endloop
  endfacet
  facet normal -1 0 0
    outer loop
      vertex -13 18 -0.5
      vertex -13 -13 0.5
      vertex -13 13 0.5
    endloop
  endfacet
  facet normal -1 0 0
    outer loop
      vertex -13 -18 -0.5
      vertex -13 -13 0.5
      vertex -13 18 -0.5
    endloop
  endfacet
  facet normal -1 -0 0
    outer loop
      vertex -13 -13 0.5
      vertex -13 -18 -0.5
      vertex -13 -18 0.5
    endloop
  endfacet
  facet normal -1 -0 0
    outer loop
      vertex -13 13 9.5
      vertex -13 -13 0.5
      vertex -13 -13 9.5
    endloop
  endfacet
  facet normal 0 0 1
    outer loop
      vertex 13 18 0.5
      vertex 12 15.5 0.5
      vertex 13 13 0.5
    endloop
  endfacet
  facet normal 0 0 1
    outer loop
      vertex 13 18 0.5
      vertex 10.9635 16.9266 0.5
      vertex 12 15.5 0.5
    endloop
  endfacet
  facet normal 0 0 1
    outer loop
      vertex 3.5927 16.7853 0.5
      vertex 10.9635 16.9266 0.5
      vertex 13 18 0.5
    endloop
  endfacet
  facet normal 0 0 1
    outer loop
      vertex 9.28647 16.3817 0.5
      vertex 3.8 16.5 0.5
      vertex 9.28647 14.6183 0.5
    endloop
  endfacet
  facet normal 0 0 1
    outer loop
      vertex 10.9635 16.9266 0.5
      vertex 3.5927 16.7853 0.5
      vertex 9.28647 16.3817 0.5
    endloop
  endfacet
  facet normal 0 0 1
    outer loop
      vertex 9.28647 16.3817 0.5
      vertex 3.5927 16.7853 0.5
      vertex 3.8 16.5 0.5
    endloop
  endfacet
  facet normal 0 0 1
    outer loop
      vertex 3.25729 16.6763 0.5
      vertex 1.5 16.5 0.5
      vertex 3.25729 16.3237 0.5
    endloop
  endfacet
  facet normal -0 0 1
    outer loop
      vertex 1.2927 16.7853 0.5
      vertex 3.25729 16.6763 0.5
      vertex 3.5927 16.7853 0.5
    endloop
  endfacet
  facet normal 0 0 1
    outer loop
      vertex 3.25729 16.6763 0.5
      vertex 1.2927 16.7853 0.5
      vertex 1.5 16.5 0.5
    endloop
  endfacet
  facet normal 0 0 1
    outer loop
      vertex 13 18 0.5
      vertex 1.2927 16.7853 0.5
      vertex 3.5927 16.7853 0.5
    endloop
  endfacet
  facet normal 0 0 1
    outer loop
      vertex 0.957294 16.6763 0.5
      vertex -0.9 16.5 0.5
      vertex 0.957294 16.3237 0.5
    endloop
  endfacet
  facet normal -0 0 1
    outer loop
      vertex -1.10729 16.7853 0.5
      vertex 0.957294 16.6763 0.5
      vertex 1.2927 16.7853 0.5
    endloop
  endfacet
  facet normal 0 0 1
    outer loop
      vertex 0.957294 16.6763 0.5
      vertex -1.10729 16.7853 0.5
      vertex -0.9 16.5 0.5
    endloop
  endfacet
  facet normal 0 0 1
    outer loop
      vertex 13 18 0.5
      vertex -1.10729 16.7853 0.5
      vertex 1.2927 16.7853 0.5
    endloop
  endfacet
  facet normal 0 0 1
    outer loop
      vertex -1.4427 16.6763 0.5
      vertex -3.2 16.5 0.5
      vertex -1.4427 16.3237 0.5
    endloop
  endfacet
  facet normal -0 0 1
    outer loop
      vertex -3.40729 16.7853 0.5
      vertex -1.4427 16.6763 0.5
      vertex -1.10729 16.7853 0.5
    endloop
  endfacet
  facet normal 0 0 1
    outer loop
      vertex -1.4427 16.6763 0.5
      vertex -3.40729 16.7853 0.5
      vertex -3.2 16.5 0.5
    endloop
  endfacet
  facet normal -0 0 1
    outer loop
      vertex -13 18 0.5
      vertex -1.10729 16.7853 0.5
      vertex 13 18 0.5
    endloop
  endfacet
  facet normal 0 0 1
    outer loop
      vertex -3.7427 16.6763 0.5
      vertex -9 15.5 0.5
      vertex -3.7427 16.3237 0.5
    endloop
  endfacet
  facet normal 0 0 1
    outer loop
      vertex -10.0365 16.9266 0.5
      vertex -3.7427 16.6763 0.5
      vertex -3.40729 16.7853 0.5
    endloop
  endfacet
  facet normal 0 0 1
    outer loop
      vertex -3.7427 16.6763 0.5
      vertex -10.0365 16.9266 0.5
      vertex -9 15.5 0.5
    endloop
  endfacet
  facet normal 0 0 1
    outer loop
      vertex -1.10729 16.7853 0.5
      vertex -13 18 0.5
      vertex -3.40729 16.7853 0.5
    endloop
  endfacet
  facet normal 0 0 1
    outer loop
      vertex -11.7135 16.3817 0.5
      vertex -13 18 0.5
      vertex -11.7135 14.6183 0.5
    endloop
  endfacet
  facet normal 0 0 1
    outer loop
      vertex -10.0365 16.9266 0.5
      vertex -13 18 0.5
      vertex -11.7135 16.3817 0.5
    endloop
  endfacet
  facet normal 0 0 1
    outer loop
      vertex -3.40729 16.7853 0.5
      vertex -13 18 0.5
      vertex -10.0365 16.9266 0.5
    endloop
  endfacet
  facet normal -0 0 1
    outer loop
      vertex 10.9635 14.0734 0.5
      vertex 13 13 0.5
      vertex 12 15.5 0.5
    endloop
  endfacet
  facet normal 0 0 1
    outer loop
      vertex 9.28647 14.6183 0.5
      vertex 13 13 0.5
      vertex 10.9635 14.0734 0.5
    endloop
  endfacet
  facet normal -0 0 1
    outer loop
      vertex 3.5927 16.2147 0.5
      vertex 9.28647 14.6183 0.5
      vertex 3.8 16.5 0.5
    endloop
  endfacet
  facet normal -0 0 1
    outer loop
      vertex 1.2927 16.2147 0.5
      vertex 9.28647 14.6183 0.5
      vertex 3.5927 16.2147 0.5
    endloop
  endfacet
  facet normal 0 0 1
    outer loop
      vertex 1.2927 16.2147 0.5
      vertex 3.5927 16.2147 0.5
      vertex 3.25729 16.3237 0.5
    endloop
  endfacet
  facet normal 0 0 1
    outer loop
      vertex 1.2927 16.2147 0.5
      vertex 3.25729 16.3237 0.5
      vertex 1.5 16.5 0.5
    endloop
  endfacet
  facet normal 0 0 1
    outer loop
      vertex -10.0365 14.0734 0.5
      vertex 9.28647 14.6183 0.5
      vertex 1.2927 16.2147 0.5
    endloop
  endfacet
  facet normal 0 0 1
    outer loop
      vertex -1.10729 16.2147 0.5
      vertex 0.957294 16.3237 0.5
      vertex -0.9 16.5 0.5
    endloop
  endfacet
  facet normal 0 0 1
    outer loop
      vertex 0.957294 16.3237 0.5
      vertex -1.10729 16.2147 0.5
      vertex 1.2927 16.2147 0.5
    endloop
  endfacet
  facet normal 0 0 1
    outer loop
      vertex -10.0365 14.0734 0.5
      vertex 1.2927 16.2147 0.5
      vertex -1.10729 16.2147 0.5
    endloop
  endfacet
  facet normal 0 0 1
    outer loop
      vertex -3.40729 16.2147 0.5
      vertex -1.4427 16.3237 0.5
      vertex -3.2 16.5 0.5
    endloop
  endfacet
  facet normal 0 0 1
    outer loop
      vertex -1.4427 16.3237 0.5
      vertex -3.40729 16.2147 0.5
      vertex -1.10729 16.2147 0.5
    endloop
  endfacet
  facet normal 0 0 1
    outer loop
      vertex -10.0365 14.0734 0.5
      vertex -1.10729 16.2147 0.5
      vertex -3.40729 16.2147 0.5
    endloop
  endfacet
  facet normal 0 0 1
    outer loop
      vertex -10.0365 14.0734 0.5
      vertex -3.7427 16.3237 0.5
      vertex -9 15.5 0.5
    endloop
  endfacet
  facet normal 0 0 1
    outer loop
      vertex -3.7427 16.3237 0.5
      vertex -10.0365 14.0734 0.5
      vertex -3.40729 16.2147 0.5
    endloop
  endfacet
  facet normal 0 0 1
    outer loop
      vertex 9.28647 14.6183 0.5
      vertex -10.0365 14.0734 0.5
      vertex 13 13 0.5
    endloop
  endfacet
  facet normal 0 0 1
    outer loop
      vertex -10.0365 14.0734 0.5
      vertex -13 13 0.5
      vertex 13 13 0.5
    endloop
  endfacet
  facet normal 0 0 1
    outer loop
      vertex -11.7135 14.6183 0.5
      vertex -13 13 0.5
      vertex -10.0365 14.0734 0.5
    endloop
  endfacet
  facet normal 0 0 1
    outer loop
      vertex -13 13 0.5
      vertex -11.7135 14.6183 0.5
      vertex -13 18 0.5
    endloop
  endfacet
  facet normal 0 0 1
    outer loop
      vertex -8 -13 0.5
      vertex -9 -15.5 0.5
      vertex -8 -17 0.5
    endloop
  endfacet
  facet normal 0 0 1
    outer loop
      vertex -8 -13 0.5
      vertex -10.0365 -14.0734 0.5
      vertex -9 -15.5 0.5
    endloop
  endfacet
  facet normal -0 0 1
    outer loop
      vertex -13 -13 0.5
      vertex -10.0365 -14.0734 0.5
      vertex -8 -13 0.5
    endloop
  endfacet
  facet normal 0 0 1
    outer loop
      vertex -11.7135 -14.6183 0.5
      vertex -13 -13 0.5
      vertex -11.7135 -16.3817 0.5
    endloop
  endfacet
  facet normal 0 0 1
    outer loop
      vertex -10.0365 -14.0734 0.5
      vertex -13 -13 0.5
      vertex -11.7135 -14.6183 0.5
    endloop
  endfacet
  facet normal 0 0 1
    outer loop
      vertex 13 -13 0.5
      vertex 12 -15.5 0.5
      vertex 13 -18 0.5
    endloop
  endfacet
  facet normal 0 0 1
    outer loop
      vertex 13 -13 0.5
      vertex 10.9635 -14.0734 0.5
      vertex 12 -15.5 0.5
    endloop
  endfacet
  facet normal -0 0 1
    outer loop
      vertex 8 -13 0.5
      vertex 10.9635 -14.0734 0.5
      vertex 13 -13 0.5
    endloop
  endfacet
  facet normal 0 0 1
    outer loop
      vertex 8 -17 0.5
      vertex 9.28647 -14.6183 0.5
      vertex 8 -13 0.5
    endloop
  endfacet
  facet normal 0 0 1
    outer loop
      vertex 10.9635 -14.0734 0.5
      vertex 8 -13 0.5
      vertex 9.28647 -14.6183 0.5
    endloop
  endfacet
  facet normal -0 0 1
    outer loop
      vertex 10.9635 -16.9266 0.5
      vertex 13 -18 0.5
      vertex 12 -15.5 0.5
    endloop
  endfacet
  facet normal 0 0 1
    outer loop
      vertex 8 -17 0.5
      vertex 10.9635 -16.9266 0.5
      vertex 9.28647 -16.3817 0.5
    endloop
  endfacet
  facet normal 0 0 1
    outer loop
      vertex 9.28647 -14.6183 0.5
      vertex 8 -17 0.5
      vertex 9.28647 -16.3817 0.5
    endloop
  endfacet
  facet normal 0 0 1
    outer loop
      vertex 10.9635 -16.9266 0.5
      vertex 8 -17 0.5
      vertex 13 -18 0.5
    endloop
  endfacet
  facet normal -0 0 1
    outer loop
      vertex -8 -17 0.5
      vertex 13 -18 0.5
      vertex 8 -17 0.5
    endloop
  endfacet
  facet normal -0 0 1
    outer loop
      vertex -10.0365 -16.9266 0.5
      vertex -8 -17 0.5
      vertex -9 -15.5 0.5
    endloop
  endfacet
  facet normal 0 0 1
    outer loop
      vertex -13 -18 0.5
      vertex -8 -17 0.5
      vertex -10.0365 -16.9266 0.5
    endloop
  endfacet
  facet normal 0 0 1
    outer loop
      vertex -8 -17 0.5
      vertex -13 -18 0.5
      vertex 13 -18 0.5
    endloop
  endfacet
  facet normal 0 0 1
    outer loop
      vertex -11.7135 -16.3817 0.5
      vertex -13 -18 0.5
      vertex -10.0365 -16.9266 0.5
    endloop
  endfacet
  facet normal 0 0 1
    outer loop
      vertex -13 -18 0.5
      vertex -11.7135 -16.3817 0.5
      vertex -13 -13 0.5
    endloop
  endfacet
  facet normal 1 0 0
    outer loop
      vertex 13 13 9.5
      vertex 13 -13 9.5
      vertex 13 13 0.5
    endloop
  endfacet
  facet normal 1 -0 0
    outer loop
      vertex 13 13 0.5
      vertex 13 18 -0.5
      vertex 13 18 0.5
    endloop
  endfacet
  facet normal 1 0 0
    outer loop
      vertex 13 -13 0.5
      vertex 13 13 0.5
      vertex 13 -13 9.5
    endloop
  endfacet
  facet normal 1 -0 0
    outer loop
      vertex 13 -13 0.5
      vertex 13 18 -0.5
      vertex 13 13 0.5
    endloop
  endfacet
  facet normal 1 0 0
    outer loop
      vertex 13 -18 -0.5
      vertex 13 -13 0.5
      vertex 13 -18 0.5
    endloop
  endfacet
  facet normal 1 0 0
    outer loop
      vertex 13 -13 0.5
      vertex 13 -18 -0.5
      vertex 13 18 -0.5
    endloop
  endfacet
  facet normal 0 0 -1
    outer loop
      vertex 12 12 -0.5
      vertex 10.9635 14.0734 -0.5
      vertex 12 15.5 -0.5
    endloop
  endfacet
  facet normal 0 0 -1
    outer loop
      vertex 12 12 -0.5
      vertex 9.28647 14.6183 -0.5
      vertex 10.9635 14.0734 -0.5
    endloop
  endfacet
  facet normal 0 0 -1
    outer loop
      vertex 9.28647 14.6183 -0.5
      vertex 3.8 16.5 -0.5
      vertex 9.28647 16.3817 -0.5
    endloop
  endfacet
  facet normal 0 0 -1
    outer loop
      vertex 3.5927 16.2147 -0.5
      vertex 9.28647 14.6183 -0.5
      vertex 12 12 -0.5
    endloop
  endfacet
  facet normal 0 0 -1
    outer loop
      vertex 9.28647 14.6183 -0.5
      vertex 3.5927 16.2147 -0.5
      vertex 3.8 16.5 -0.5
    endloop
  endfacet
  facet normal 0 0 -1
    outer loop
      vertex 1.2927 16.2147 -0.5
      vertex 3.5927 16.2147 -0.5
      vertex 12 12 -0.5
    endloop
  endfacet
  facet normal 0 0 -1
    outer loop
      vertex 3.25729 16.3237 -0.5
      vertex 1.5 16.5 -0.5
      vertex 3.25729 16.6763 -0.5
    endloop
  endfacet
  facet normal 0 0 -1
    outer loop
      vertex 3.5927 16.2147 -0.5
      vertex 1.2927 16.2147 -0.5
      vertex 3.25729 16.3237 -0.5
    endloop
  endfacet
  facet normal -0 0 -1
    outer loop
      vertex 3.25729 16.3237 -0.5
      vertex 1.2927 16.2147 -0.5
      vertex 1.5 16.5 -0.5
    endloop
  endfacet
  facet normal 0 0 -1
    outer loop
      vertex -1.10729 16.2147 -0.5
      vertex 1.2927 16.2147 -0.5
      vertex 12 12 -0.5
    endloop
  endfacet
  facet normal 0 0 -1
    outer loop
      vertex 0.957294 16.3237 -0.5
      vertex -0.9 16.5 -0.5
      vertex 0.957294 16.6763 -0.5
    endloop
  endfacet
  facet normal 0 0 -1
    outer loop
      vertex 1.2927 16.2147 -0.5
      vertex -1.10729 16.2147 -0.5
      vertex 0.957294 16.3237 -0.5
    endloop
  endfacet
  facet normal -0 0 -1
    outer loop
      vertex 0.957294 16.3237 -0.5
      vertex -1.10729 16.2147 -0.5
      vertex -0.9 16.5 -0.5
    endloop
  endfacet
  facet normal 0 0 -1
    outer loop
      vertex -1.4427 16.3237 -0.5
      vertex -3.2 16.5 -0.5
      vertex -1.4427 16.6763 -0.5
    endloop
  endfacet
  facet normal 0 0 -1
    outer loop
      vertex -3.40729 16.2147 -0.5
      vertex -1.4427 16.3237 -0.5
      vertex -1.10729 16.2147 -0.5
    endloop
  endfacet
  facet normal 0 0 -1
    outer loop
      vertex -12 12 -0.5
      vertex -1.10729 16.2147 -0.5
      vertex 12 12 -0.5
    endloop
  endfacet
  facet normal -0 0 -1
    outer loop
      vertex -1.4427 16.3237 -0.5
      vertex -3.40729 16.2147 -0.5
      vertex -3.2 16.5 -0.5
    endloop
  endfacet
  facet normal -0 0 -1
    outer loop
      vertex -3.7427 16.3237 -0.5
      vertex -9 15.5 -0.5
      vertex -3.7427 16.6763 -0.5
    endloop
  endfacet
  facet normal 0 0 -1
    outer loop
      vertex -10.0365 14.0734 -0.5
      vertex -3.7427 16.3237 -0.5
      vertex -3.40729 16.2147 -0.5
    endloop
  endfacet
  facet normal -0 0 -1
    outer loop
      vertex -1.10729 16.2147 -0.5
      vertex -12 12 -0.5
      vertex -3.40729 16.2147 -0.5
    endloop
  endfacet
  facet normal 0 0 -1
    outer loop
      vertex -3.7427 16.3237 -0.5
      vertex -10.0365 14.0734 -0.5
      vertex -9 15.5 -0.5
    endloop
  endfacet
  facet normal 0 0 -1
    outer loop
      vertex -13 18 -0.5
      vertex -11.7135 14.6183 -0.5
      vertex -12 12 -0.5
    endloop
  endfacet
  facet normal -0 0 -1
    outer loop
      vertex -10.0365 14.0734 -0.5
      vertex -12 12 -0.5
      vertex -11.7135 14.6183 -0.5
    endloop
  endfacet
  facet normal 0 0 -1
    outer loop
      vertex -3.40729 16.2147 -0.5
      vertex -12 12 -0.5
      vertex -10.0365 14.0734 -0.5
    endloop
  endfacet
  facet normal 0 0 -1
    outer loop
      vertex 10.9635 -14.0734 -0.5
      vertex 12 -12 -0.5
      vertex 12 -15.5 -0.5
    endloop
  endfacet
  facet normal 0 0 -1
    outer loop
      vertex 8 -12 -0.5
      vertex 10.9635 -14.0734 -0.5
      vertex 9.28647 -14.6183 -0.5
    endloop
  endfacet
  facet normal 0 0 -1
    outer loop
      vertex 10.9635 -14.0734 -0.5
      vertex 8 -12 -0.5
      vertex 12 -12 -0.5
    endloop
  endfacet
  facet normal 0 0 -1
    outer loop
      vertex 8 -12 -0.5
      vertex 9.28647 -14.6183 -0.5
      vertex 8 -17 -0.5
    endloop
  endfacet
  facet normal 0 0 -1
    outer loop
      vertex 12 -12 -0.5
      vertex 13 -18 -0.5
      vertex 12 -15.5 -0.5
    endloop
  endfacet
  facet normal 0 0 -1
    outer loop
      vertex 13 -18 -0.5
      vertex 10.9635 -16.9266 -0.5
      vertex 12 -15.5 -0.5
    endloop
  endfacet
  facet normal 0 0 -1
    outer loop
      vertex 8 -17 -0.5
      vertex 10.9635 -16.9266 -0.5
      vertex 13 -18 -0.5
    endloop
  endfacet
  facet normal -0 0 -1
    outer loop
      vertex 9.28647 -16.3817 -0.5
      vertex 8 -17 -0.5
      vertex 9.28647 -14.6183 -0.5
    endloop
  endfacet
  facet normal -0 0 -1
    outer loop
      vertex 10.9635 -16.9266 -0.5
      vertex 8 -17 -0.5
      vertex 9.28647 -16.3817 -0.5
    endloop
  endfacet
  facet normal 0 0 -1
    outer loop
      vertex 13 -18 -0.5
      vertex -8 -17 -0.5
      vertex 8 -17 -0.5
    endloop
  endfacet
  facet normal 0 0 -1
    outer loop
      vertex -8 -17 -0.5
      vertex -9 -15.5 -0.5
      vertex -8 -12 -0.5
    endloop
  endfacet
  facet normal 0 0 -1
    outer loop
      vertex -8 -17 -0.5
      vertex -10.0365 -16.9266 -0.5
      vertex -9 -15.5 -0.5
    endloop
  endfacet
  facet normal 0 0 -1
    outer loop
      vertex -13 -18 -0.5
      vertex -8 -17 -0.5
      vertex 13 -18 -0.5
    endloop
  endfacet
  facet normal 0 0 -1
    outer loop
      vertex -13 -18 -0.5
      vertex -11.7135 -14.6183 -0.5
      vertex -11.7135 -16.3817 -0.5
    endloop
  endfacet
  facet normal -0 0 -1
    outer loop
      vertex -12 -12 -0.5
      vertex -13 -18 -0.5
      vertex -12 12 -0.5
    endloop
  endfacet
  facet normal -0 0 -1
    outer loop
      vertex -11.7135 -14.6183 -0.5
      vertex -13 -18 -0.5
      vertex -12 -12 -0.5
    endloop
  endfacet
  facet normal -0 0 -1
    outer loop
      vertex -10.0365 -16.9266 -0.5
      vertex -13 -18 -0.5
      vertex -11.7135 -16.3817 -0.5
    endloop
  endfacet
  facet normal -0 0 -1
    outer loop
      vertex -8 -17 -0.5
      vertex -13 -18 -0.5
      vertex -10.0365 -16.9266 -0.5
    endloop
  endfacet
  facet normal 0 0 -1
    outer loop
      vertex 13 -18 -0.5
      vertex 12 -12 -0.5
      vertex 13 18 -0.5
    endloop
  endfacet
  facet normal 0 0 -1
    outer loop
      vertex 12 12 -0.5
      vertex 13 18 -0.5
      vertex 12 -12 -0.5
    endloop
  endfacet
  facet normal 0 0 -1
    outer loop
      vertex 12 15.5 -0.5
      vertex 13 18 -0.5
      vertex 12 12 -0.5
    endloop
  endfacet
  facet normal 0 0 -1
    outer loop
      vertex 10.9635 16.9266 -0.5
      vertex 13 18 -0.5
      vertex 12 15.5 -0.5
    endloop
  endfacet
  facet normal 0 0 -1
    outer loop
      vertex 3.5927 16.7853 -0.5
      vertex 10.9635 16.9266 -0.5
      vertex 9.28647 16.3817 -0.5
    endloop
  endfacet
  facet normal 0 0 -1
    outer loop
      vertex 3.5927 16.7853 -0.5
      vertex 9.28647 16.3817 -0.5
      vertex 3.8 16.5 -0.5
    endloop
  endfacet
  facet normal -0 0 -1
    outer loop
      vertex 10.9635 16.9266 -0.5
      vertex 3.5927 16.7853 -0.5
      vertex 13 18 -0.5
    endloop
  endfacet
  facet normal 0 0 -1
    outer loop
      vertex 1.2927 16.7853 -0.5
      vertex 3.25729 16.6763 -0.5
      vertex 1.5 16.5 -0.5
    endloop
  endfacet
  facet normal 0 0 -1
    outer loop
      vertex 3.25729 16.6763 -0.5
      vertex 1.2927 16.7853 -0.5
      vertex 3.5927 16.7853 -0.5
    endloop
  endfacet
  facet normal 0 0 -1
    outer loop
      vertex 1.2927 16.7853 -0.5
      vertex 13 18 -0.5
      vertex 3.5927 16.7853 -0.5
    endloop
  endfacet
  facet normal 0 0 -1
    outer loop
      vertex -1.10729 16.7853 -0.5
      vertex 0.957294 16.6763 -0.5
      vertex -0.9 16.5 -0.5
    endloop
  endfacet
  facet normal 0 0 -1
    outer loop
      vertex 0.957294 16.6763 -0.5
      vertex -1.10729 16.7853 -0.5
      vertex 1.2927 16.7853 -0.5
    endloop
  endfacet
  facet normal 0 0 -1
    outer loop
      vertex -1.10729 16.7853 -0.5
      vertex 13 18 -0.5
      vertex 1.2927 16.7853 -0.5
    endloop
  endfacet
  facet normal 0 0 -1
    outer loop
      vertex -3.40729 16.7853 -0.5
      vertex -1.4427 16.6763 -0.5
      vertex -3.2 16.5 -0.5
    endloop
  endfacet
  facet normal 0 0 -1
    outer loop
      vertex -1.4427 16.6763 -0.5
      vertex -3.40729 16.7853 -0.5
      vertex -1.10729 16.7853 -0.5
    endloop
  endfacet
  facet normal 0 0 -1
    outer loop
      vertex -13 18 -0.5
      vertex -1.10729 16.7853 -0.5
      vertex -3.40729 16.7853 -0.5
    endloop
  endfacet
  facet normal 0 0 -1
    outer loop
      vertex -10.0365 16.9266 -0.5
      vertex -3.7427 16.6763 -0.5
      vertex -9 15.5 -0.5
    endloop
  endfacet
  facet normal 0 0 -1
    outer loop
      vertex -3.7427 16.6763 -0.5
      vertex -10.0365 16.9266 -0.5
      vertex -3.40729 16.7853 -0.5
    endloop
  endfacet
  facet normal 0 0 -1
    outer loop
      vertex -13 18 -0.5
      vertex -3.40729 16.7853 -0.5
      vertex -10.0365 16.9266 -0.5
    endloop
  endfacet
  facet normal 0 0 -1
    outer loop
      vertex -1.10729 16.7853 -0.5
      vertex -13 18 -0.5
      vertex 13 18 -0.5
    endloop
  endfacet
  facet normal 0 0 -1
    outer loop
      vertex -11.7135 16.3817 -0.5
      vertex -13 18 -0.5
      vertex -10.0365 16.9266 -0.5
    endloop
  endfacet
  facet normal 0 0 -1
    outer loop
      vertex -11.7135 14.6183 -0.5
      vertex -13 18 -0.5
      vertex -11.7135 16.3817 -0.5
    endloop
  endfacet
  facet normal 0 0 -1
    outer loop
      vertex -13 18 -0.5
      vertex -12 12 -0.5
      vertex -13 -18 -0.5
    endloop
  endfacet
  facet normal 0 0 -1
    outer loop
      vertex -10.0365 -14.0734 -0.5
      vertex -8 -12 -0.5
      vertex -9 -15.5 -0.5
    endloop
  endfacet
  facet normal 0 0 -1
    outer loop
      vertex -12 -12 -0.5
      vertex -10.0365 -14.0734 -0.5
      vertex -11.7135 -14.6183 -0.5
    endloop
  endfacet
  facet normal 0 0 -1
    outer loop
      vertex -10.0365 -14.0734 -0.5
      vertex -12 -12 -0.5
      vertex -8 -12 -0.5
    endloop
  endfacet
  facet normal 0 -1 0
    outer loop
      vertex -13 -18 -0.5
      vertex 13 -18 0.5
      vertex -13 -18 0.5
    endloop
  endfacet
  facet normal 0 -1 -0
    outer loop
      vertex 13 -18 0.5
      vertex -13 -18 -0.5
      vertex 13 -18 -0.5
    endloop
  endfacet
  facet normal 0 1 -0
    outer loop
      vertex 13 18 -0.5
      vertex -13 18 0.5
      vertex 13 18 0.5
    endloop
  endfacet
  facet normal 0 1 0
    outer loop
      vertex -13 18 0.5
      vertex 13 18 -0.5
      vertex -13 18 -0.5
    endloop
  endfacet
  facet normal -0.809017 -0.587786 0
    outer loop
      vertex 12 15.5 -0.5
      vertex 10.9635 16.9266 0.5
      vertex 10.9635 16.9266 -0.5
    endloop
  endfacet
  facet normal -0.809017 -0.587786 0
    outer loop
      vertex 10.9635 16.9266 0.5
      vertex 12 15.5 -0.5
      vertex 12 15.5 0.5
    endloop
  endfacet
  facet normal 1 -0 0
    outer loop
      vertex 9.28647 14.6183 0.5
      vertex 9.28647 16.3817 -0.5
      vertex 9.28647 16.3817 0.5
    endloop
  endfacet
  facet normal 1 0 0
    outer loop
      vertex 9.28647 16.3817 -0.5
      vertex 9.28647 14.6183 0.5
      vertex 9.28647 14.6183 -0.5
    endloop
  endfacet
  facet normal 0.309017 -0.951057 0
    outer loop
      vertex 9.28647 16.3817 -0.5
      vertex 10.9635 16.9266 0.5
      vertex 9.28647 16.3817 0.5
    endloop
  endfacet
  facet normal 0.309017 -0.951057 0
    outer loop
      vertex 10.9635 16.9266 0.5
      vertex 9.28647 16.3817 -0.5
      vertex 10.9635 16.9266 -0.5
    endloop
  endfacet
  facet normal -0.809017 0.587785 0
    outer loop
      vertex 10.9635 14.0734 -0.5
      vertex 12 15.5 0.5
      vertex 12 15.5 -0.5
    endloop
  endfacet
  facet normal -0.809017 0.587785 0
    outer loop
      vertex 12 15.5 0.5
      vertex 10.9635 14.0734 -0.5
      vertex 10.9635 14.0734 0.5
    endloop
  endfacet
  facet normal 0.309017 0.951057 -0
    outer loop
      vertex 10.9635 14.0734 -0.5
      vertex 9.28647 14.6183 0.5
      vertex 10.9635 14.0734 0.5
    endloop
  endfacet
  facet normal 0.309017 0.951057 0
    outer loop
      vertex 9.28647 14.6183 0.5
      vertex 10.9635 14.0734 -0.5
      vertex 9.28647 14.6183 -0.5
    endloop
  endfacet
  facet normal -0.809017 -0.587785 0
    outer loop
      vertex -9 15.5 -0.5
      vertex -10.0365 16.9266 0.5
      vertex -10.0365 16.9266 -0.5
    endloop
  endfacet
  facet normal -0.809017 -0.587785 0
    outer loop
      vertex -10.0365 16.9266 0.5
      vertex -9 15.5 -0.5
      vertex -9 15.5 0.5
    endloop
  endfacet
  facet normal 1 -0 0
    outer loop
      vertex -11.7135 14.6183 0.5
      vertex -11.7135 16.3817 -0.5
      vertex -11.7135 16.3817 0.5
    endloop
  endfacet
  facet normal 1 0 0
    outer loop
      vertex -11.7135 16.3817 -0.5
      vertex -11.7135 14.6183 0.5
      vertex -11.7135 14.6183 -0.5
    endloop
  endfacet
  facet normal 0.309017 -0.951057 0
    outer loop
      vertex -11.7135 16.3817 -0.5
      vertex -10.0365 16.9266 0.5
      vertex -11.7135 16.3817 0.5
    endloop
  endfacet
  facet normal 0.309017 -0.951057 0
    outer loop
      vertex -10.0365 16.9266 0.5
      vertex -11.7135 16.3817 -0.5
      vertex -10.0365 16.9266 -0.5
    endloop
  endfacet
  facet normal 0.309017 0.951057 -0
    outer loop
      vertex -10.0365 14.0734 -0.5
      vertex -11.7135 14.6183 0.5
      vertex -10.0365 14.0734 0.5
    endloop
  endfacet
  facet normal 0.309017 0.951057 0
    outer loop
      vertex -11.7135 14.6183 0.5
      vertex -10.0365 14.0734 -0.5
      vertex -11.7135 14.6183 -0.5
    endloop
  endfacet
  facet normal -0.809017 0.587785 0
    outer loop
      vertex -10.0365 14.0734 -0.5
      vertex -9 15.5 0.5
      vertex -9 15.5 -0.5
    endloop
  endfacet
  facet normal -0.809017 0.587785 0
    outer loop
      vertex -9 15.5 0.5
      vertex -10.0365 14.0734 -0.5
      vertex -10.0365 14.0734 0.5
    endloop
  endfacet
  facet normal -0.809017 -0.587785 0
    outer loop
      vertex 12 -15.5 -0.5
      vertex 10.9635 -14.0734 0.5
      vertex 10.9635 -14.0734 -0.5
    endloop
  endfacet
  facet normal -0.809017 -0.587785 0
    outer loop
      vertex 10.9635 -14.0734 0.5
      vertex 12 -15.5 -0.5
      vertex 12 -15.5 0.5
    endloop
  endfacet
  facet normal 1 -0 0
    outer loop
      vertex 9.28647 -16.3817 0.5
      vertex 9.28647 -14.6183 -0.5
      vertex 9.28647 -14.6183 0.5
    endloop
  endfacet
  facet normal 1 0 0
    outer loop
      vertex 9.28647 -14.6183 -0.5
      vertex 9.28647 -16.3817 0.5
      vertex 9.28647 -16.3817 -0.5
    endloop
  endfacet
  facet normal 0.309017 -0.951057 0
    outer loop
      vertex 9.28647 -14.6183 -0.5
      vertex 10.9635 -14.0734 0.5
      vertex 9.28647 -14.6183 0.5
    endloop
  endfacet
  facet normal 0.309017 -0.951057 0
    outer loop
      vertex 10.9635 -14.0734 0.5
      vertex 9.28647 -14.6183 -0.5
      vertex 10.9635 -14.0734 -0.5
    endloop
  endfacet
  facet normal 0.309017 0.951057 -0
    outer loop
      vertex 10.9635 -16.9266 -0.5
      vertex 9.28647 -16.3817 0.5
      vertex 10.9635 -16.9266 0.5
    endloop
  endfacet
  facet normal 0.309017 0.951057 0
    outer loop
      vertex 9.28647 -16.3817 0.5
      vertex 10.9635 -16.9266 -0.5
      vertex 9.28647 -16.3817 -0.5
    endloop
  endfacet
  facet normal -0.809017 0.587786 0
    outer loop
      vertex 10.9635 -16.9266 -0.5
      vertex 12 -15.5 0.5
      vertex 12 -15.5 -0.5
    endloop
  endfacet
  facet normal -0.809017 0.587786 0
    outer loop
      vertex 12 -15.5 0.5
      vertex 10.9635 -16.9266 -0.5
      vertex 10.9635 -16.9266 0.5
    endloop
  endfacet
  facet normal -0.809017 -0.587785 0
    outer loop
      vertex -9 -15.5 -0.5
      vertex -10.0365 -14.0734 0.5
      vertex -10.0365 -14.0734 -0.5
    endloop
  endfacet
  facet normal -0.809017 -0.587785 0
    outer loop
      vertex -10.0365 -14.0734 0.5
      vertex -9 -15.5 -0.5
      vertex -9 -15.5 0.5
    endloop
  endfacet
  facet normal 1 -0 0
    outer loop
      vertex -11.7135 -16.3817 0.5
      vertex -11.7135 -14.6183 -0.5
      vertex -11.7135 -14.6183 0.5
    endloop
  endfacet
  facet normal 1 0 0
    outer loop
      vertex -11.7135 -14.6183 -0.5
      vertex -11.7135 -16.3817 0.5
      vertex -11.7135 -16.3817 -0.5
    endloop
  endfacet
  facet normal 0.309017 -0.951057 0
    outer loop
      vertex -11.7135 -14.6183 -0.5
      vertex -10.0365 -14.0734 0.5
      vertex -11.7135 -14.6183 0.5
    endloop
  endfacet
  facet normal 0.309017 -0.951057 0
    outer loop
      vertex -10.0365 -14.0734 0.5
      vertex -11.7135 -14.6183 -0.5
      vertex -10.0365 -14.0734 -0.5
    endloop
  endfacet
  facet normal 0.309017 0.951057 -0
    outer loop
      vertex -10.0365 -16.9266 -0.5
      vertex -11.7135 -16.3817 0.5
      vertex -10.0365 -16.9266 0.5
    endloop
  endfacet
  facet normal 0.309017 0.951057 0
    outer loop
      vertex -11.7135 -16.3817 0.5
      vertex -10.0365 -16.9266 -0.5
      vertex -11.7135 -16.3817 -0.5
    endloop
  endfacet
  facet normal -0.809017 0.587785 0
    outer loop
      vertex -10.0365 -16.9266 -0.5
      vertex -9 -15.5 0.5
      vertex -9 -15.5 -0.5
    endloop
  endfacet
  facet normal -0.809017 0.587785 0
    outer loop
      vertex -9 -15.5 0.5
      vertex -10.0365 -16.9266 -0.5
      vertex -10.0365 -16.9266 0.5
    endloop
  endfacet
  facet normal -0 0 1
    outer loop
      vertex -13 13 9.5
      vertex 13 -13 9.5
      vertex 13 13 9.5
    endloop
  endfacet
  facet normal 0 0 1
    outer loop
      vertex 13 -13 9.5
      vertex -13 13 9.5
      vertex -13 -13 9.5
    endloop
  endfacet
  facet normal 0 1 -0
    outer loop
      vertex 13 13 0.5
      vertex -13 13 9.5
      vertex 13 13 9.5
    endloop
  endfacet
  facet normal 0 1 0
    outer loop
      vertex -13 13 9.5
      vertex 13 13 0.5
      vertex -13 13 0.5
    endloop
  endfacet
  facet normal 0 -1 0
    outer loop
      vertex -13 -13 9.5
      vertex -8 -13 4.5
      vertex 13 -13 9.5
    endloop
  endfacet
  facet normal 0 -1 0
    outer loop
      vertex -13 -13 0.5
      vertex -8 -13 4.5
      vertex -13 -13 9.5
    endloop
  endfacet
  facet normal 0 -1 -0
    outer loop
      vertex -8 -13 4.5
      vertex -13 -13 0.5
      vertex -8 -13 0.5
    endloop
  endfacet
  facet normal 0 -1 0
    outer loop
      vertex 8 -13 4.5
      vertex 13 -13 9.5
      vertex -8 -13 4.5
    endloop
  endfacet
  facet normal 0 -1 0
    outer loop
      vertex 13 -13 0.5
      vertex 8 -13 4.5
      vertex 8 -13 0.5
    endloop
  endfacet
  facet normal 0 -1 0
    outer loop
      vertex 8 -13 4.5
      vertex 13 -13 0.5
      vertex 13 -13 9.5
    endloop
  endfacet
  facet normal -1 0 0
    outer loop
      vertex -8 -17 0.5
      vertex -8 -13 4.5
      vertex -8 -13 0.5
    endloop
  endfacet
  facet normal -1 -0 0
    outer loop
      vertex -8 -13 4.5
      vertex -8 -17 0.5
      vertex -8 -17 4.5
    endloop
  endfacet
  facet normal -1 0 0
    outer loop
      vertex -8 -17 -4.5
      vertex -8 -12 -0.5
      vertex -8 -12 -4.5
    endloop
  endfacet
  facet normal -1 -0 0
    outer loop
      vertex -8 -12 -0.5
      vertex -8 -17 -4.5
      vertex -8 -17 -0.5
    endloop
  endfacet
  facet normal -0 0 1
    outer loop
      vertex -8 -13 4.5
      vertex 8 -17 4.5
      vertex 8 -13 4.5
    endloop
  endfacet
  facet normal 0 0 1
    outer loop
      vertex 8 -17 4.5
      vertex -8 -13 4.5
      vertex -8 -17 4.5
    endloop
  endfacet
  facet normal 1 -0 0
    outer loop
      vertex 8 -17 4.5
      vertex 8 -13 0.5
      vertex 8 -13 4.5
    endloop
  endfacet
  facet normal 1 0 0
    outer loop
      vertex 8 -13 0.5
      vertex 8 -17 4.5
      vertex 8 -17 0.5
    endloop
  endfacet
  facet normal 1 -0 0
    outer loop
      vertex 8 -17 -0.5
      vertex 8 -12 -4.5
      vertex 8 -12 -0.5
    endloop
  endfacet
  facet normal 1 0 0
    outer loop
      vertex 8 -12 -4.5
      vertex 8 -17 -0.5
      vertex 8 -17 -4.5
    endloop
  endfacet
  facet normal 0 0 -1
    outer loop
      vertex 8 -17 -4.5
      vertex -8 -17 -4.5
      vertex 8 -12 -4.5
    endloop
  endfacet
  facet normal 0 0 -1
    outer loop
      vertex 8 -12 -4.5
      vertex 12 12 -4.5
      vertex 12 -12 -4.5
    endloop
  endfacet
  facet normal 0 0 -1
    outer loop
      vertex -8 -12 -4.5
      vertex 8 -12 -4.5
      vertex -8 -17 -4.5
    endloop
  endfacet
  facet normal 0 0 -1
    outer loop
      vertex 8 -12 -4.5
      vertex -8 -12 -4.5
      vertex 12 12 -4.5
    endloop
  endfacet
  facet normal 0 0 -1
    outer loop
      vertex -12 12 -4.5
      vertex -8 -12 -4.5
      vertex -12 -12 -4.5
    endloop
  endfacet
  facet normal 0 0 -1
    outer loop
      vertex -8 -12 -4.5
      vertex -12 12 -4.5
      vertex 12 12 -4.5
    endloop
  endfacet
  facet normal 0 -1 0
    outer loop
      vertex -8 -17 0.5
      vertex 8 -17 4.5
      vertex -8 -17 4.5
    endloop
  endfacet
  facet normal 0 -1 -0
    outer loop
      vertex 8 -17 4.5
      vertex -8 -17 0.5
      vertex 8 -17 0.5
    endloop
  endfacet
  facet normal 0 -1 0
    outer loop
      vertex -8 -17 -4.5
      vertex 8 -17 -0.5
      vertex -8 -17 -0.5
    endloop
  endfacet
  facet normal 0 -1 -0
    outer loop
      vertex 8 -17 -0.5
      vertex -8 -17 -4.5
      vertex 8 -17 -4.5
    endloop
  endfacet
  facet normal -1 0 0
    outer loop
      vertex -12 -12 -4.5
      vertex -12 12 -0.5
      vertex -12 12 -4.5
    endloop
  endfacet
  facet normal -1 -0 0
    outer loop
      vertex -12 12 -0.5
      vertex -12 -12 -4.5
      vertex -12 -12 -0.5
    endloop
  endfacet
  facet normal 1 -0 0
    outer loop
      vertex 12 -12 -0.5
      vertex 12 12 -4.5
      vertex 12 12 -0.5
    endloop
  endfacet
  facet normal 1 0 0
    outer loop
      vertex 12 12 -4.5
      vertex 12 -12 -0.5
      vertex 12 -12 -4.5
    endloop
  endfacet
  facet normal 0 1 -0
    outer loop
      vertex 12 12 -4.5
      vertex -12 12 -0.5
      vertex 12 12 -0.5
    endloop
  endfacet
  facet normal 0 1 0
    outer loop
      vertex -12 12 -0.5
      vertex 12 12 -4.5
      vertex -12 12 -4.5
    endloop
  endfacet
  facet normal 0 -1 0
    outer loop
      vertex -12 -12 -4.5
      vertex -8 -12 -0.5
      vertex -12 -12 -0.5
    endloop
  endfacet
  facet normal 0 -1 -0
    outer loop
      vertex -8 -12 -0.5
      vertex -12 -12 -4.5
      vertex -8 -12 -4.5
    endloop
  endfacet
  facet normal 0 -1 0
    outer loop
      vertex 8 -12 -4.5
      vertex 12 -12 -0.5
      vertex 8 -12 -0.5
    endloop
  endfacet
  facet normal 0 -1 -0
    outer loop
      vertex 12 -12 -0.5
      vertex 8 -12 -4.5
      vertex 12 -12 -4.5
    endloop
  endfacet
endsolid OpenSCAD_Model
